<svg width="18" height="18" viewBox="0 0 18 18" fill="none" xmlns="http://www.w3.org/2000/svg">
<path d="M5.08188 8.78493C4.66524 9.14745 4.62136 9.77909 4.98388 10.1957C5.34641 10.6124 5.97805 10.6563 6.3947 10.2937L5.08188 8.78493ZM8.50503 7.13201L9.1287 6.35032C8.75135 6.04925 8.2128 6.06073 7.84862 6.3776L8.50503 7.13201ZM10.7481 10.201C11.1799 10.5454 11.8091 10.4747 12.1535 10.043C12.4979 9.61124 12.4272 8.98204 11.9955 8.63759L10.7481 10.201ZM6.3947 10.2937L9.16143 7.88641L7.84862 6.3776L5.08188 8.78493L6.3947 10.2937ZM7.88135 7.91369L10.7481 10.201L11.9955 8.63759L9.1287 6.35032L7.88135 7.91369ZM3.30556 8.79372C3.24231 5.82587 5.59696 3.36867 8.56482 3.30542L8.52221 1.30588C4.45003 1.39266 1.21923 4.76416 1.30602 8.83634L3.30556 8.79372ZM8.56482 3.30542C11.5327 3.24218 13.9899 5.59683 14.0531 8.56468L16.0527 8.52207C15.9659 4.4499 12.5944 1.2191 8.52221 1.30588L8.56482 3.30542ZM14.0531 8.56468C14.1164 11.5325 11.7617 13.9897 8.79386 14.053L8.83647 16.0525C12.9086 15.9657 16.1394 12.5942 16.0527 8.52207L14.0531 8.56468ZM8.79386 14.053C5.826 14.1162 3.36881 11.7616 3.30556 8.79372L1.30602 8.83634C1.3928 12.9085 4.7643 16.1393 8.83647 16.0525L8.79386 14.053Z" fill="white"/>
</svg>
