<svg width="15" height="25" viewBox="0 0 15 25" fill="none" xmlns="http://www.w3.org/2000/svg">
<path d="M12.8351 23.0954C12.4814 23.6689 11.8481 24.0511 11.125 24.048L2.87503 24.0122C2.15189 24.0091 1.52194 23.6214 1.17315 23.0449L12.8351 23.0954ZM13.1374 21.1807C13.1094 21.1781 13.0811 21.1765 13.0524 21.1764L0.972482 21.1241C0.943843 21.1239 0.915517 21.1253 0.887505 21.1276L0.949918 6.71857C0.977941 6.72115 1.00618 6.72369 1.03486 6.72382L13.1148 6.77614C13.1435 6.77626 13.1718 6.77397 13.1998 6.77163L13.1374 21.1807ZM11.2289 0.0481822C12.3335 0.0529666 13.225 0.952267 13.2202 2.05683L13.2081 4.86051C13.1801 4.85793 13.1518 4.85636 13.1231 4.85624L1.04317 4.80391C1.01454 4.80379 0.9862 4.80512 0.958197 4.80745L0.970341 2.00377C0.975125 0.899206 1.87443 0.00766275 2.97899 0.0124472L11.2289 0.0481822Z" fill="white"/>
<rect x="0.0791016" y="5.75995" width="14" height="16.32" rx="1" transform="rotate(0.248178 0.0791016 5.75995)" fill="white"/>
</svg>
