<svg width="23" height="23" viewBox="0 0 23 23" fill="none" xmlns="http://www.w3.org/2000/svg">
<path d="M9.99539 16.8858C10.2637 16.7804 10.5033 16.6271 10.7429 16.4546L12.6308 14.9404C15.7262 12.4583 19.4254 7.45583 20.9012 3.77583C21.1312 3.22 20.9587 2.67375 20.5946 2.31917C20.2496 1.96458 19.7033 1.81125 19.1379 2.02208C15.4675 3.48833 10.4458 7.20667 7.97331 10.3021L6.47831 12.19C6.27706 12.42 6.11414 12.6979 6.00873 12.995C6.20039 12.9758 6.39206 12.995 6.58373 13.0046C7.39831 13.11 8.19373 13.4933 8.84539 14.145C9.48748 14.7871 9.85164 15.5346 9.95706 16.3396C9.98581 16.5217 9.99539 16.7133 9.99539 16.8858ZM9.99539 16.8858C9.99539 17.94 9.59289 18.9462 8.83581 19.7129C8.25123 20.2975 7.45581 20.7 6.50706 20.8246L4.14956 21.0833C2.86539 21.2271 1.76331 20.1346 1.91664 18.8312L2.17539 16.4737C2.40539 14.375 4.15914 13.0333 6.01831 12.995C6.20998 12.9854 6.41123 12.995 6.59331 13.0046C7.40789 13.11 8.20331 13.4837 8.85498 14.145C9.49706 14.7871 9.86123 15.5346 9.96664 16.3396C9.97623 16.5217 9.99539 16.7037 9.99539 16.8858ZM13.6466 13.8671C13.6466 11.3658 11.615 9.33417 9.11373 9.33417" stroke="black" stroke-width="1.5" stroke-linecap="round" stroke-linejoin="round"/>
</svg>
