<svg width="13" height="12" viewBox="0 0 13 12" fill="none" xmlns="http://www.w3.org/2000/svg">
<g clip-path="url(#clip0_46_90)">
<path fill-rule="evenodd" clip-rule="evenodd" d="M5.41236 10.3913C6.78768 11.7758 8.72054 12.1949 10.6587 11.3291L12.2848 11.9942L11.7431 10.6562C13.5501 9.13972 13.2242 7.05565 11.8954 5.6345C11.8067 6.17544 11.6322 6.69701 11.3792 7.17759C11.0064 7.87521 10.4978 8.4829 9.8864 8.96124C9.25904 9.45784 8.55221 9.83323 7.79908 10.0698C7.02525 10.3113 6.21936 10.4206 5.41236 10.3935V10.3913ZM7.90698 4.00494C8.04676 4.00494 8.18339 4.04837 8.29961 4.12974C8.41583 4.2111 8.50641 4.32676 8.5599 4.46207C8.61339 4.59738 8.62738 4.74627 8.60011 4.88991C8.57284 5.03356 8.50554 5.1655 8.4067 5.26906C8.30787 5.37263 8.18194 5.44315 8.04486 5.47173C7.90777 5.5003 7.76567 5.48563 7.63654 5.42959C7.50741 5.37354 7.39703 5.27863 7.31938 5.15685C7.24173 5.03507 7.20028 4.89191 7.20028 4.74545C7.20028 4.54905 7.27474 4.3607 7.40727 4.22183C7.5398 4.08296 7.71955 4.00494 7.90698 4.00494ZM3.23617 4.00494C3.37594 4.00494 3.51258 4.04837 3.62879 4.12974C3.74501 4.2111 3.83559 4.32676 3.88908 4.46207C3.94257 4.59738 3.95656 4.74627 3.92929 4.88991C3.90203 5.03356 3.83472 5.1655 3.73588 5.26906C3.63705 5.37263 3.51113 5.44315 3.37404 5.47173C3.23695 5.5003 3.09486 5.48563 2.96572 5.42959C2.83659 5.37354 2.72622 5.27863 2.64856 5.15685C2.57091 5.03507 2.52946 4.89191 2.52946 4.74545C2.52946 4.54905 2.60392 4.3607 2.73645 4.22183C2.86898 4.08296 3.04874 4.00494 3.23617 4.00494ZM5.57211 4.00494C5.71192 4.00472 5.84866 4.04796 5.96502 4.1292C6.08137 4.21043 6.17212 4.32601 6.22577 4.4613C6.27942 4.59659 6.29357 4.74551 6.26642 4.88923C6.23927 5.03295 6.17205 5.165 6.07325 5.26867C5.97446 5.37234 5.84854 5.44298 5.71142 5.47164C5.57431 5.50031 5.43216 5.48571 5.30296 5.42969C5.17377 5.37368 5.06333 5.27877 4.98563 5.15697C4.90793 5.03517 4.86646 4.89195 4.86646 4.74545C4.86646 4.54905 4.94091 4.3607 5.07345 4.22183C5.20598 4.08296 5.38573 4.00494 5.57316 4.00494H5.57211ZM5.71281 -0.000234779C7.23837 0.0485412 8.60629 0.616116 9.58488 1.49519C10.5804 2.38979 11.1718 3.60143 11.1401 4.93168C11.102 6.26194 10.4355 7.4381 9.38916 8.26951C8.35767 9.09538 6.96118 9.57759 5.43563 9.53325C5.02045 9.52089 4.6072 9.46894 4.20101 9.37806C3.83971 9.29657 3.48577 9.18271 3.14307 9.03773L0.75635 10.0177L1.55404 8.03117C1.08692 7.61718 0.702562 7.11046 0.423098 6.54018C0.128139 5.93969 -0.017415 5.27091 -7.90358e-05 4.59579C0.0380069 3.26554 0.704511 2.08937 1.75082 1.25686C2.78231 0.443183 4.18197 -0.0445766 5.71281 -0.000234779ZM5.698 0.576209C4.29411 0.534084 3.01717 0.971959 2.08301 1.71358C1.16366 2.43856 0.581789 3.46729 0.548993 4.61131C0.533999 5.19115 0.65842 5.76563 0.91081 6.28189C1.18775 6.84349 1.57799 7.33523 2.05445 7.723L2.2216 7.85602L1.76457 8.98452L3.14836 8.41473L3.25415 8.46129C3.59711 8.61382 3.95312 8.73186 4.31739 8.81381C4.69011 8.89763 5.06938 8.9455 5.45044 8.95681C6.84904 9.00004 8.12598 8.56217 9.06014 7.81944C9.97738 7.09445 10.5614 6.06683 10.5952 4.92171C10.627 3.77769 10.1033 2.72124 9.23047 1.9375C8.3418 1.13713 7.09448 0.62055 5.69906 0.576209H5.698Z" fill="black"/>
</g>
<defs>
<clipPath id="clip0_46_90">
<rect width="13" height="12" fill="white"/>
</clipPath>
</defs>
</svg>
