<svg width="22" height="24" viewBox="0 0 22 24" fill="none" xmlns="http://www.w3.org/2000/svg">
<path d="M10.5602 6.24V9.12C10.5602 9.6502 10.9542 10.08 11.4402 10.08H14.0802M15.8402 2.4H9.67996C8.70795 2.4 7.91997 3.25961 7.91996 4.31999V6.24M15.8402 2.4H16.3311C16.5789 2.4 16.8148 2.51387 16.9855 2.70982C17.2421 3.0043 17.6485 3.45772 18.0402 3.84C18.3471 4.13962 18.8294 4.67732 19.1182 5.00411C19.2743 5.18083 19.3602 5.4168 19.3602 5.66227L19.3601 6.24M15.8402 2.4V5.28C15.8402 5.8102 16.2342 6.24 16.7202 6.24H19.3601M19.3601 6.24L19.3599 15.84C19.3599 16.9004 18.5719 17.76 17.5999 17.76H14.0799M12.7602 7.68C12.3685 7.29772 11.9621 6.8443 11.7055 6.54983C11.5348 6.35387 11.2989 6.24 11.0511 6.24H4.39996C3.42794 6.24 2.63997 7.09961 2.63996 8.15999L2.63989 19.68C2.63989 20.7403 3.42786 21.6 4.39989 21.6L12.3199 21.6C13.2919 21.6 14.0799 20.7404 14.0799 19.68L14.0802 9.50227C14.0802 9.2568 13.9943 9.02083 13.8382 8.84411C13.5494 8.51732 13.0671 7.97962 12.7602 7.68Z" stroke="black" stroke-width="2" stroke-linecap="round" stroke-linejoin="round"/>
</svg>
