<svg width="26" height="26" viewBox="0 0 16 16" fill="none" xmlns="http://www.w3.org/2000/svg">
<path d="M9.9999 1.59999V3.99999C9.9999 4.44182 10.3581 4.79999 10.7999 4.79999H13.1999M9.9999 1.59999H10.4462C10.6715 1.59999 10.8859 1.69488 11.0411 1.85817C11.2744 2.10357 11.6439 2.48142 11.9999 2.79999C12.279 3.04967 12.7174 3.49775 12.9799 3.77008C13.1219 3.91734 13.1999 4.11398 13.1999 4.31854L13.1999 4.79999M9.9999 1.59999H3.99965M13.1999 4.79999L13.1998 14M2.79965 5.59999V12.7999C2.79965 13.6836 3.51599 14.3999 4.39965 14.4H9.59965M13.5999 15.2L2.3999 0.799988" stroke="white" stroke-linecap="round" stroke-linejoin="round"/>
</svg>
