<svg width="92" height="97" viewBox="0 0 92 97" fill="none" xmlns="http://www.w3.org/2000/svg">
<path d="M91.5 48.5C91.5 75.0349 71.1044 96.5 46 96.5C20.8956 96.5 0.5 75.0349 0.5 48.5C0.5 21.9651 20.8956 0.5 46 0.5C71.1044 0.5 91.5 21.9651 91.5 48.5Z" fill="#F8EEFF" stroke="#67058D"/>
<path d="M60 28C60 36.2843 53.0604 43 44.5 43C35.9396 43 29 36.2843 29 28C29 19.7157 35.9396 13 44.5 13C53.0604 13 60 19.7157 60 28Z" fill="#FFF07E"/>
<path d="M60 28C60 36.2843 53.0604 43 44.5 43C35.9396 43 29 36.2843 29 28C29 19.7157 35.9396 13 44.5 13C53.0604 13 60 19.7157 60 28Z" fill="#C1B0FF"/>
<ellipse cx="46.5" cy="67.5" rx="27.5" ry="19.5" fill="#FFF07E"/>
<ellipse cx="46.5" cy="67.5" rx="27.5" ry="19.5" fill="#C1B0FF"/>
</svg>
