<svg width="26" height="26" viewBox="0 0 15 16" fill="none" xmlns="http://www.w3.org/2000/svg">
<path d="M6.14029 11.9429H9.17221M10.768 14H4.54455C4.19203 14 3.90625 13.693 3.90625 13.3143V11.4825C3.90625 11.3361 3.94985 11.1936 4.03068 11.0757L5.8613 8.40677C6.02721 8.16488 6.02721 7.83512 5.8613 7.59324L4.03068 4.92427C3.94985 4.80643 3.90625 4.66389 3.90625 4.51751V2.68571C3.90625 2.307 4.19203 2 4.54455 2H10.6084C10.9609 2 11.2467 2.307 11.2467 2.68571V4.53072C11.2467 4.66891 11.2078 4.80388 11.1352 4.91793L9.42819 7.59808C9.2749 7.83877 9.28008 8.15728 9.44112 8.39206L11.2818 11.0757C11.3626 11.1936 11.4062 11.3361 11.4062 11.4825V13.3143C11.4062 13.693 11.1205 14 10.768 14Z" stroke="#ffffff" stroke-linecap="round" stroke-linejoin="round"/>
</svg>
