<svg width="23" height="24" viewBox="0 0 23 24" fill="none" xmlns="http://www.w3.org/2000/svg">
<g clip-path="url(#clip0_319_114)">
<path fill-rule="evenodd" clip-rule="evenodd" d="M2.42271 3.20685C4.23967 1.34632 7.14155 0 11.5 0C15.8585 0 18.7603 1.34632 20.5773 3.20685C22.37 5.04259 23 7.27378 23 8.85586C23 10.4379 22.37 12.6692 20.5773 14.5049C18.7603 16.3654 15.8585 17.7117 11.5 17.7117C11.4654 17.7117 11.4309 17.7117 11.3965 17.7115C12.4256 19.0839 13.1726 20.5452 13.1676 22.7091C13.166 23.4192 12.6131 23.9935 11.9326 23.9918C11.2521 23.9901 10.7017 23.413 10.7033 22.703C10.7055 21.7356 10.5094 21.0089 10.0971 20.2685C9.95358 20.7096 9.72542 21.1661 9.38513 21.5844C8.65932 22.4762 7.52174 23.0721 5.9522 23.0721C4.38267 23.0721 3.24509 22.4762 2.51929 21.5844C1.83315 20.7411 1.6029 19.7419 1.6029 19.0284C1.6029 18.3151 1.83315 17.3157 2.51929 16.4726C2.81875 16.1046 3.18833 15.787 3.62942 15.5409C3.18294 15.2199 2.78165 14.8724 2.42271 14.5049C0.629975 12.6692 0 10.4379 0 8.85586C0 7.27378 0.629975 5.04259 2.42271 3.20685ZM4.14872 5.04219C2.8611 6.36069 2.46429 7.91457 2.46429 8.85586C2.46429 9.79718 2.8611 11.351 4.14872 12.6695C5.41211 13.9632 7.64417 15.1403 11.5 15.1403C15.3558 15.1403 17.5879 13.9632 18.8513 12.6695C20.139 11.351 20.5357 9.79718 20.5357 8.85586C20.5357 7.91457 20.139 6.36069 18.8513 5.04219C17.5879 3.74849 15.3558 2.57143 11.5 2.57143C7.64417 2.57143 5.41211 3.74849 4.14872 5.04219ZM4.39767 18.1371C4.14866 18.443 4.06719 18.8227 4.06719 19.0284C4.06719 19.2343 4.14866 19.6138 4.39767 19.9198C4.60702 20.1771 5.02801 20.5006 5.9522 20.5006C6.87641 20.5006 7.29741 20.1771 7.50676 19.9198C7.75576 19.6138 7.83723 19.2343 7.83723 19.0284C7.83723 18.8227 7.75576 18.443 7.50676 18.1371C7.29741 17.8798 6.87641 17.5563 5.9522 17.5563C5.02801 17.5563 4.60702 17.8798 4.39767 18.1371Z" fill="black"/>
</g>
<defs>
<clipPath id="clip0_319_114">
<rect width="23" height="24" fill="white"/>
</clipPath>
</defs>
</svg>
