<svg width="48" height="49" viewBox="0 0 48 49" fill="none" xmlns="http://www.w3.org/2000/svg">
<path d="M23.6571 1C27.9259 1.33494 28.2542 5.01922 28.2542 7.02883C28.2542 9.03844 23.6571 20.4262 23.6571 20.4262C21.7396 14.3429 19.3884 9.37338 19.06 7.02883C18.7317 4.68429 19.7168 1.33494 23.6571 1Z" fill="#B08DF4" stroke="#B08DF4"/>
<path d="M46.9855 24.1704C46.6706 28.5256 43.0596 28.872 41.0894 28.8783C39.1192 28.8846 27.9405 24.2313 27.9405 24.2313C33.8984 22.2564 38.7631 19.8425 41.0606 19.5002C43.3581 19.1579 46.6448 20.1522 46.9855 24.1704Z" fill="#B08DF4" stroke="#B08DF4"/>
<path d="M1.01446 24.1704C1.32944 28.5256 4.94041 28.872 6.91059 28.8783C8.88077 28.8846 20.0595 24.2313 20.0595 24.2313C14.1016 22.2564 9.23692 19.8425 6.93941 19.5002C4.64189 19.1579 1.35517 20.1522 1.01446 24.1704Z" fill="#B08DF4" stroke="#B08DF4"/>
<path d="M23.3232 47.7646C19.076 47.2142 18.9271 43.5178 19.0248 41.5107C19.1225 39.5035 24.2674 28.3622 24.2674 28.3622C25.8869 34.535 27.9937 39.6173 28.2077 41.9756C28.4217 44.3339 27.275 47.6293 23.3232 47.7646Z" fill="#B08DF4" stroke="#B08DF4"/>
<path d="M36.62 36.6197C34.1906 38.9145 32.2073 37.3651 31.2206 36.4171C30.2339 35.4691 27.0815 27.4555 27.0815 27.4555C31.0859 29.2235 34.7735 30.2169 36.099 31.1342C37.4244 32.0516 38.5463 34.1977 36.62 36.6197Z" fill="#B08DF4" stroke="#B08DF4"/>
<path d="M35.6956 11.9323C37.9093 14.4439 36.3612 16.4438 35.4173 17.4362C34.4735 18.4286 26.5715 21.5255 26.5715 21.5255C28.3637 17.4675 29.3918 13.7211 30.3106 12.3828C31.2294 11.0446 33.3497 9.932 35.6956 11.9323Z" fill="#B08DF4" stroke="#B08DF4"/>
<path d="M11.4253 11.9423C13.9182 9.71964 15.8571 11.3264 16.8168 12.3029C17.7765 13.2794 20.7021 21.3819 20.7021 21.3819C16.7491 19.4975 13.0909 18.3966 11.7918 17.4408C10.4928 16.4851 9.43169 14.3071 11.4253 11.9423Z" fill="#B08DF4" stroke="#B08DF4"/>
<path d="M11.5427 37.4371C9.37178 35.0508 10.8903 33.0287 11.8162 32.0189C12.7421 31.009 20.4929 27.6748 20.4929 27.6748C18.7346 31.7282 17.7258 35.4472 16.8245 36.7961C15.9232 38.1449 13.8435 39.3162 11.5427 37.4371Z" fill="#B08DF4" stroke="#B08DF4"/>
</svg>
