<svg width="20" height="20" viewBox="0 0 20 20" fill="none" xmlns="http://www.w3.org/2000/svg">
<path d="M6.77924 15L5 13.125M5 13.125L6.77924 11.25M5 13.125H13.75C14.4404 13.125 15 12.5654 15 11.875V10M13.2208 5L15 6.875M15 6.875L13.2208 8.75M15 6.875L6.25 6.875C5.55964 6.875 5 7.43464 5 8.125L5 10" stroke="black" stroke-width="2" stroke-linecap="round" stroke-linejoin="round"/>
<path d="M1 4.375C1 2.51104 2.51104 1 4.375 1H15.625C17.489 1 19 2.51104 19 4.375V15.625C19 17.489 17.489 19 15.625 19H4.375C2.51104 19 1 17.489 1 15.625V4.375Z" stroke="black" stroke-width="2" stroke-linejoin="round"/>
</svg>
