<svg width="32" height="29" viewBox="0 0 32 29" fill="none" xmlns="http://www.w3.org/2000/svg">
<path d="M23.8843 13.726C23.9026 14.364 23.6431 15.0073 23.1058 15.4942L16.2244 21.7304C15.1851 22.6722 13.5001 22.6722 12.4609 21.7304L5.57951 15.4942C5.04223 15.0073 4.78271 14.364 4.80095 13.726M23.8843 13.726C23.8688 13.1834 23.6524 12.6446 23.2351 12.2092C23.1869 12.1131 23.1192 12.0231 23.032 11.9441L14.4637 4.17902M23.8843 13.726H4.80095M4.80095 13.726C4.81798 13.1299 5.0775 12.5384 5.57951 12.0834C5.75643 11.9231 14.4637 4.17902 14.4637 4.17902M14.4637 4.17902L13.0524 2.9M6.14741 26.1H20.2947M26.0661 18.359C25.9823 18.2392 25.8388 18.163 25.6833 18.163C25.5278 18.163 25.3843 18.2393 25.3006 18.359C25.0016 18.8057 24.0328 20.3308 24.0328 20.9953C24.0328 21.8232 24.7743 22.4986 25.6833 22.4986C26.5923 22.4986 27.3338 21.8232 27.3338 20.9953C27.3338 20.3199 26.3651 18.8057 26.0661 18.359Z" stroke="black" stroke-width="2" stroke-linecap="round" stroke-linejoin="round"/>
</svg>
