<svg width="24" height="24" viewBox="0 0 24 24" fill="none" xmlns="http://www.w3.org/2000/svg">
<path d="M15.5993 12.8094L15.0538 11.9714L15.0398 11.9804L15.0262 11.99L15.5993 12.8094ZM15.5993 11.4333L15.0064 12.2385L15.051 12.2713L15.099 12.2991L15.5993 11.4333ZM10.0839 7.37197L10.6769 6.56672L10.6487 6.54594L10.6191 6.52719L10.0839 7.37197ZM8.92766 7.97857L9.92765 7.97567L9.92763 7.96692L9.92745 7.95817L8.92766 7.97857ZM8.95078 15.9563L7.95079 15.9592L7.95087 15.9875L7.95255 16.0157L8.95078 15.9563ZM10.1494 16.6211L10.6337 17.496L10.6796 17.4706L10.7226 17.4406L10.1494 16.6211ZM5.9999 3.4H17.9999V1.4H5.9999V3.4ZM20.5999 6V18H22.5999V6H20.5999ZM17.9999 20.6H5.9999V22.6H17.9999V20.6ZM3.3999 18V6H1.3999V18H3.3999ZM5.9999 20.6C4.56396 20.6 3.3999 19.4359 3.3999 18H1.3999C1.3999 20.5405 3.45939 22.6 5.9999 22.6V20.6ZM20.5999 18C20.5999 19.4359 19.4358 20.6 17.9999 20.6V22.6C20.5404 22.6 22.5999 20.5405 22.5999 18H20.5999ZM17.9999 3.4C19.4358 3.4 20.5999 4.56406 20.5999 6H22.5999C22.5999 3.45949 20.5404 1.4 17.9999 1.4V3.4ZM5.9999 1.4C3.45939 1.4 1.3999 3.45949 1.3999 6H3.3999C3.3999 4.56406 4.56396 3.4 5.9999 3.4V1.4ZM16.1449 13.6475C16.5793 13.3647 17.1284 12.8603 17.1274 12.1001C17.1263 11.3174 16.5491 10.8271 16.0997 10.5674L15.099 12.2991C15.2036 12.3596 15.2229 12.391 15.2083 12.3724C15.1867 12.3449 15.1276 12.2501 15.1274 12.1028C15.1272 11.9592 15.1833 11.8746 15.192 11.8628C15.1963 11.857 15.1655 11.8986 15.0538 11.9714L16.1449 13.6475ZM16.1923 10.628L10.6769 6.56672L9.49098 8.17721L15.0064 12.2385L16.1923 10.628ZM10.6191 6.52719C10.1484 6.22908 9.48756 6.05828 8.86255 6.35011C8.1823 6.66773 7.91466 7.35195 7.92786 7.99898L9.92745 7.95817C9.92625 7.89961 9.93844 7.91854 9.90768 7.97738C9.87303 8.04369 9.80534 8.11718 9.70869 8.1623C9.52273 8.24913 9.4477 8.1527 9.5488 8.21674L10.6191 6.52719ZM7.92766 7.98147L7.95079 15.9592L9.95078 15.9534L9.92765 7.97567L7.92766 7.98147ZM7.95255 16.0157C7.98436 16.55 8.17011 17.2623 8.84054 17.6204C9.50063 17.9729 10.1879 17.7427 10.6337 17.496L9.66523 15.7461C9.56611 15.801 9.52715 15.8041 9.5428 15.8019C9.56646 15.7986 9.66412 15.7929 9.78273 15.8562C9.90301 15.9205 9.95507 16.0078 9.96769 16.0347C9.976 16.0524 9.95623 16.0181 9.94901 15.8969L7.95255 16.0157ZM10.7226 17.4406L16.1725 13.6289L15.0262 11.99L9.57631 15.8016L10.7226 17.4406Z" fill="black"/>
</svg>
