<svg width="14" height="14" viewBox="0 0 14 14" fill="none" xmlns="http://www.w3.org/2000/svg">
<g clip-path="url(#clip0_329_107)">
<path fill-rule="evenodd" clip-rule="evenodd" d="M7.45465 13.0016C8.00693 13.0016 8.45465 12.5538 8.45465 12.0016C8.45465 11.4493 8.00693 11.0016 7.45465 11.0016H4.72652C4.02702 11.0016 3.3562 10.7237 2.8615 10.2291C2.3669 9.73443 2.089 9.06357 2.089 8.36406C2.089 7.66455 2.3669 6.9937 2.8615 6.49907C3.3562 6.00444 4.02702 5.72657 4.72652 5.72657H9.18277V7.45468C9.18277 7.85914 9.42641 8.22378 9.80008 8.37856C10.1738 8.53334 10.6039 8.44779 10.8899 8.16179L13.6159 5.43572C13.6225 5.42919 13.629 5.42256 13.6354 5.41585C13.7219 5.32497 13.7881 5.22181 13.8338 5.11216C13.8835 4.9935 13.9109 4.86323 13.9109 4.72657C13.9109 4.59191 13.8843 4.46348 13.836 4.34623C13.7872 4.22736 13.7145 4.11599 13.618 4.01945L10.8899 1.2913C10.6039 1.0053 10.1738 0.9198 9.80008 1.0746C9.42641 1.2293 9.18277 1.594 9.18277 1.9984V3.7266H4.72652C3.4966 3.7266 2.317 4.21516 1.4473 5.08486C0.5776 5.95456 0.0889997 7.13412 0.0889997 8.36406C0.0889997 9.594 0.5776 10.7736 1.4473 11.6433C2.317 12.513 3.4966 13.0016 4.72652 13.0016H7.45465Z" fill="white"/>
</g>
<defs>
<clipPath id="clip0_329_107">
<rect width="14" height="14" fill="white" transform="matrix(-1 0 0 -1 14 14)"/>
</clipPath>
</defs>
</svg>
