<svg width="14" height="14" viewBox="0 0 14 14" fill="none" xmlns="http://www.w3.org/2000/svg">
<g clip-path="url(#clip0_360_129)">
<path fill-rule="evenodd" clip-rule="evenodd" d="M9.80507 0.745416C9.98581 -0.0802161 11.1614 -0.0853549 11.3493 0.738666L11.358 0.776877C11.3638 0.802571 11.3694 0.826946 11.3752 0.851685C11.5855 1.74737 12.3103 2.43176 13.2177 2.58962C14.0791 2.73949 14.0791 3.9761 13.2177 4.12597C12.3055 4.28467 11.5777 4.97553 11.3718 5.87826L11.3493 5.97692C11.1614 6.80095 9.98581 6.7958 9.80507 5.97017L9.78654 5.88551C9.58821 4.97951 8.86146 4.28353 7.94773 4.12457C7.08787 3.97498 7.08786 2.74061 7.94773 2.59102C8.85828 2.43261 9.58315 1.74092 9.78445 0.839537L9.7981 0.777362L9.80507 0.745416ZM7.77062 5.14249C6.42884 4.90906 5.98663 3.54072 6.44402 2.55925C6.40692 2.52258 6.36649 2.48909 6.32311 2.45924C6.17555 2.35769 6.00076 2.30307 5.82163 2.30254H5.09246C4.91333 2.30307 4.73854 2.35769 4.59097 2.45924C4.44341 2.56079 4.32995 2.70453 4.26547 2.87165L3.8831 3.8587L2.56703 4.60566L1.51773 4.4456C1.34301 4.42188 1.16519 4.45064 1.00685 4.52823C0.848517 4.60581 0.716821 4.72872 0.628499 4.88132L0.272805 5.50379C0.18166 5.65882 0.139667 5.83785 0.152367 6.01725C0.165068 6.19664 0.231865 6.36797 0.343944 6.50862L1.01087 7.33561V8.82952L0.361729 9.65651C0.24965 9.79716 0.182852 9.96849 0.170152 10.1479C0.157451 10.3273 0.199445 10.5063 0.29059 10.6613L0.646284 11.2838C0.734606 11.4364 0.866302 11.5593 1.02464 11.6369C1.18297 11.7145 1.3608 11.7433 1.53552 11.7195L2.58482 11.5595L3.8831 12.3064L4.26547 13.2935C4.32995 13.4606 4.44341 13.6044 4.59097 13.7059C4.73854 13.8074 4.91333 13.8621 5.09246 13.8626H5.83941C6.01854 13.8621 6.19333 13.8074 6.3409 13.7059C6.48846 13.6044 6.60192 13.4606 6.6664 13.2935L7.04877 12.3064L8.34706 11.5595L9.39635 11.7195C9.57107 11.7433 9.7489 11.7145 9.90723 11.6369C10.0656 11.5593 10.1973 11.4364 10.2856 11.2838L10.6413 10.6613C10.7324 10.5063 10.7744 10.3273 10.7617 10.1479C10.749 9.96849 10.6822 9.79716 10.5701 9.65651L9.90322 8.82952V7.50279C9.38121 7.30485 8.94377 6.86732 8.79575 6.19111L8.77722 6.10646C8.66865 5.6105 8.27081 5.22951 7.77062 5.14249ZM5.45705 9.94043C6.48312 9.94043 7.31491 9.10864 7.31491 8.08257C7.31491 7.0565 6.48312 6.2247 5.45705 6.2247C4.43098 6.2247 3.59918 7.0565 3.59918 8.08257C3.59918 9.10864 4.43098 9.94043 5.45705 9.94043Z" fill="white"/>
</g>
<defs>
<clipPath id="clip0_360_129">
<rect width="14" height="14" fill="white"/>
</clipPath>
</defs>
</svg>
