<svg width="14" height="14" viewBox="0 0 14 14" fill="none" xmlns="http://www.w3.org/2000/svg">
<g clip-path="url(#clip0_329_107)">
<path fill-rule="evenodd" clip-rule="evenodd" d="M6.54535 0.998444C5.99307 0.998444 5.54535 1.44616 5.54535 1.99844C5.54535 2.55073 5.99307 2.99844 6.54535 2.99844H9.27348C9.97298 2.99844 10.6438 3.27632 11.1385 3.77095C11.6331 4.26557 11.911 4.93643 11.911 5.63594C11.911 6.33545 11.6331 7.0063 11.1385 7.50093C10.6438 7.99556 9.97298 8.27343 9.27348 8.27343H4.81723V6.54532C4.81723 6.14086 4.57359 5.77622 4.19992 5.62144C3.82624 5.46666 3.39612 5.55221 3.11013 5.83821L0.384062 8.56428C0.377488 8.57081 0.371005 8.57744 0.364614 8.58415C0.278076 8.67503 0.211925 8.77819 0.166161 8.88784C0.116528 9.0065 0.0891113 9.13677 0.0891113 9.27343C0.0891113 9.40809 0.115725 9.53652 0.16398 9.65377C0.212789 9.77264 0.285464 9.88401 0.382005 9.98055L3.11013 12.7087C3.39612 12.9947 3.82624 13.0802 4.19992 12.9254C4.57359 12.7707 4.81723 12.406 4.81723 12.0016V10.2734H9.27348C10.5034 10.2734 11.683 9.78484 12.5527 8.91514C13.4224 8.04544 13.911 6.86588 13.911 5.63594C13.911 4.406 13.4224 3.22643 12.5527 2.35673C11.683 1.48704 10.5034 0.998444 9.27348 0.998444H6.54535Z" fill="black"/>
</g>
<defs>
<clipPath id="clip0_329_107">
<rect width="14" height="14" fill="white"/>
</clipPath>
</defs>
</svg>
