<svg width="14" height="14" viewBox="0 0 14 14" fill="none" xmlns="http://www.w3.org/2000/svg">
<g clip-path="url(#clip0_329_107)">
<path fill-rule="evenodd" clip-rule="evenodd" d="M6.54535 13.0016C5.99307 13.0016 5.54535 12.5538 5.54535 12.0016C5.54535 11.4493 5.99307 11.0016 6.54535 11.0016H9.27348C9.97298 11.0016 10.6438 10.7237 11.1385 10.2291C11.6331 9.73443 11.911 9.06357 11.911 8.36406C11.911 7.66455 11.6331 6.9937 11.1385 6.49907C10.6438 6.00444 9.97298 5.72657 9.27348 5.72657H4.81723V7.45468C4.81723 7.85914 4.57359 8.22378 4.19992 8.37856C3.82624 8.53334 3.39612 8.44779 3.11013 8.16179L0.384062 5.43572C0.377488 5.42919 0.371005 5.42256 0.364614 5.41585C0.278076 5.32497 0.211925 5.22181 0.166161 5.11216C0.116528 4.9935 0.0891113 4.86323 0.0891113 4.72657C0.0891113 4.59191 0.115725 4.46348 0.16398 4.34623C0.212789 4.22736 0.285464 4.11599 0.382005 4.01945L3.11013 1.2913C3.39612 1.0053 3.82624 0.9198 4.19992 1.0746C4.57359 1.2293 4.81723 1.594 4.81723 1.9984V3.7266H9.27348C10.5034 3.7266 11.683 4.21516 12.5527 5.08486C13.4224 5.95456 13.911 7.13412 13.911 8.36406C13.911 9.594 13.4224 10.7736 12.5527 11.6433C11.683 12.513 10.5034 13.0016 9.27348 13.0016H6.54535Z" fill="white"/>
</g>
<defs>
<clipPath id="clip0_329_107">
<rect width="14" height="14" fill="white" transform="matrix(1 0 0 -1 0 14)"/>
</clipPath>
</defs>
</svg>
