<svg width="23" height="21" viewBox="0 0 23 21" fill="none" xmlns="http://www.w3.org/2000/svg">
<g clip-path="url(#clip0_114_374)">
<path fill-rule="evenodd" clip-rule="evenodd" d="M10.2146 0.33905C10.6016 0.123071 11.0464 0.00878906 11.4999 0.00878906C11.9535 0.00878906 12.3982 0.123071 12.7852 0.33905C13.1721 0.555029 13.4863 0.864324 13.6931 1.23288L13.6968 1.23942L22.7313 17.7374C22.9199 18.0795 23.0104 18.4613 22.9928 18.8441C22.9752 19.2273 22.8507 19.6 22.6309 19.9269C22.4111 20.2537 22.1035 20.5239 21.7372 20.7117C21.371 20.8995 20.9581 20.9986 20.538 20.9998H2.46171C2.04164 20.9986 1.62887 20.8995 1.26259 20.7117C0.896314 20.5239 0.588696 20.2537 0.368949 19.9269C0.149203 19.6 0.0246235 19.2273 0.00704234 18.8441C-0.0105182 18.4613 0.0792517 18.0807 0.267834 17.7386L9.30665 1.23286C9.51344 0.864308 9.82769 0.555029 10.2146 0.33905ZM11.4999 6.1875C12.1804 6.1875 12.732 6.69118 12.732 7.3125V12.1875C12.732 12.8088 12.1804 13.3125 11.4999 13.3125C10.8194 13.3125 10.2677 12.8088 10.2677 12.1875V7.3125C10.2677 6.69118 10.8194 6.1875 11.4999 6.1875ZM13.1427 16.3125C13.1427 17.1409 12.4072 17.8125 11.4999 17.8125C10.5926 17.8125 9.85701 17.1409 9.85701 16.3125C9.85701 15.4841 10.5926 14.8125 11.4999 14.8125C12.4072 14.8125 13.1427 15.4841 13.1427 16.3125Z" fill="black"/>
</g>
<defs>
<clipPath id="clip0_114_374">
<rect width="23" height="21" fill="white"/>
</clipPath>
</defs>
</svg>
