<svg width="23" height="23" viewBox="0 0 23 23" fill="none" xmlns="http://www.w3.org/2000/svg">
<path d="M6.88082 16.2293C4.10954 12.5932 1.98882 18.9842 1.44976 21.3476C10.2217 18.9596 6.88082 16.2293 6.88082 16.2293Z" fill="white" stroke="white"/>
<path d="M9.77659 16.2323C9.68007 16.2982 9.58747 16.3547 9.50037 16.3979C9.41281 16.4413 9.29527 16.4897 9.1649 16.5035C9.04416 16.5161 8.85989 16.5015 8.7037 16.3722L8.63869 16.3099L6.85492 14.3163C6.6983 14.1414 6.69123 13.9349 6.70801 13.8094C6.72467 13.6855 6.7712 13.5728 6.81505 13.4847C6.85849 13.3975 6.91459 13.3047 6.98005 13.2083C8.20066 13.7 8.89418 14.4439 9.29144 15.0884C9.52632 15.4695 9.66178 15.8218 9.73737 16.0756C9.75444 16.133 9.76534 16.186 9.77659 16.2323ZM22.0959 1.62751C22.0891 1.74782 22.0511 1.8608 22.0187 1.94305C21.9499 2.11725 21.8333 2.32866 21.6921 2.55675C21.4048 3.02108 20.9596 3.64669 20.4139 4.36852C19.319 5.81666 17.7866 7.69461 16.212 9.53012C14.6378 11.3651 13.0133 13.1674 11.7341 14.4641C11.4922 14.7094 11.2596 14.9369 11.0419 15.1456C10.6635 14.4112 10.2411 13.8015 9.71417 13.2712C9.23168 12.7857 8.67372 12.3786 8.00749 12.0027C8.22172 11.7776 8.45695 11.5363 8.71148 11.2848C9.97665 10.0345 11.7324 8.45333 13.5277 6.91529C15.3236 5.37667 17.1688 3.87324 18.6136 2.77891C19.3343 2.233 19.9645 1.78188 20.4424 1.47893C20.6788 1.32907 20.8928 1.20545 21.0694 1.12547C21.1561 1.08626 21.2539 1.04899 21.3516 1.02769C21.4226 1.01225 21.6204 0.974172 21.814 1.08468L21.9044 1.14838C22.0882 1.30633 22.1012 1.53085 22.0959 1.62751Z" fill="white"/>
</svg>
